PathFileType	4	(X/Y/Z)	C:\Users\Willi\Documents\GitHub\processC3D_GUI\exampleC3Dfiles\gait03_L1\marker_experimental.trc
DataRate	CameraRate	NumFrames	NumMarkers	Units	OrigDataRate	OrigDataStartFrame	OrigNumFrames
2.000000e+02	2.000000e+02	12	48	m	2.000000e+02	181	288
Frame#	Time	CLAV			GLAB			LANK			LASI			LELB			LFIN			LFMH			LHEE			LKNE			LMAS			LPEL			LPSI			LSHO			LTHAD			LTHAP			LTHI			LTIAD			LTIAP			LTIB			LTOE			LVMH			LWRA			LWRB			RANK			RASI			RBAK			RELB			RFIN			RFMH			RHEE			RKNE			RMAS			RPEL			RPSI			RSHO			RTHAD			RTHAP			RTHI			RTIAD			RTIAP			RTIB			RTOE			RVMH			RWRA			RWRB			SACR			T10			T2		
		X1	Y1	Z1	X2	Y2	Z2	X3	Y3	Z3	X4	Y4	Z4	X5	Y5	Z5	X6	Y6	Z6	X7	Y7	Z7	X8	Y8	Z8	X9	Y9	Z9	X10	Y10	Z10	X11	Y11	Z11	X12	Y12	Z12	X13	Y13	Z13	X14	Y14	Z14	X15	Y15	Z15	X16	Y16	Z16	X17	Y17	Z17	X18	Y18	Z18	X19	Y19	Z19	X20	Y20	Z20	X21	Y21	Z21	X22	Y22	Z22	X23	Y23	Z23	X24	Y24	Z24	X25	Y25	Z25	X26	Y26	Z26	X27	Y27	Z27	X28	Y28	Z28	X29	Y29	Z29	X30	Y30	Z30	X31	Y31	Z31	X32	Y32	Z32	X33	Y33	Z33	X34	Y34	Z34	X35	Y35	Z35	X36	Y36	Z36	X37	Y37	Z37	X38	Y38	Z38	X39	Y39	Z39	X40	Y40	Z40	X41	Y41	Z41	X42	Y42	Z42	X43	Y43	Z43	X44	Y44	Z44	X45	Y45	Z45	X46	Y46	Z46	X47	Y47	Z47	X48	Y48	Z48
181	1.94000	1.634	1.372	0.172	1.714	1.599	0.190	1.278	0.220	0.039	1.653	0.968	0.082	1.547	1.073	-0.046	1.711	0.787	-0.079	1.323	0.081	0.098	1.229	0.248	0.081	1.642	0.474	0.041	1.593	1.545	0.104	1.553	0.997	0.030	1.480	0.988	0.141	1.587	1.397	-0.015	1.634	0.620	0.025	1.615	0.683	0.020	1.583	0.625	0.028	1.461	0.317	0.033	1.484	0.379	0.028	1.423	0.352	0.033	1.319	0.127	0.069	1.297	0.090	0.035	1.689	0.868	-0.054	1.634	0.842	-0.057	1.641	0.068	0.230	1.660	0.975	0.287	1.474	1.340	0.280	1.527	1.082	0.420	1.616	0.756	0.453	1.801	0.043	0.191	1.596	0.029	0.182	1.704	0.500	0.280	1.584	1.532	0.238	1.568	1.028	0.328	1.478	0.994	0.233	1.586	1.398	0.355	1.681	0.652	0.320	1.653	0.710	0.336	1.630	0.650	0.319	1.681	0.243	0.259	1.657	0.303	0.271	1.630	0.243	0.258	1.759	0.056	0.209	1.758	0.032	0.254	1.611	0.835	0.422	1.557	0.834	0.458	1.489	1.029	0.182	1.484	1.188	0.169	1.506	1.418	0.173
182	1.94500	1.642	1.374	0.172	1.721	1.600	0.191	1.294	0.219	0.040	1.660	0.969	0.083	1.554	1.074	-0.046	1.715	0.787	-0.076	1.344	0.081	0.097	1.244	0.245	0.083	1.656	0.477	0.042	1.601	1.547	0.105	1.560	0.999	0.031	1.487	0.989	0.142	1.594	1.398	-0.014	1.645	0.622	0.026	1.625	0.685	0.021	1.594	0.627	0.029	1.476	0.318	0.033	1.498	0.380	0.029	1.438	0.353	0.034	1.338	0.127	0.070	1.317	0.090	0.035	1.694	0.868	-0.052	1.639	0.843	-0.056	1.641	0.068	0.230	1.667	0.976	0.287	1.481	1.341	0.280	1.535	1.083	0.421	1.625	0.758	0.453	1.800	0.043	0.191	1.596	0.029	0.182	1.707	0.499	0.280	1.592	1.533	0.238	1.575	1.029	0.328	1.486	0.995	0.234	1.593	1.399	0.356	1.685	0.652	0.320	1.658	0.711	0.336	1.634	0.650	0.320	1.682	0.243	0.259	1.658	0.303	0.272	1.631	0.243	0.258	1.759	0.056	0.210	1.758	0.032	0.254	1.620	0.837	0.422	1.566	0.835	0.459	1.496	1.031	0.183	1.491	1.189	0.170	1.513	1.420	0.174
183	1.95000	1.649	1.375	0.172	1.729	1.601	0.191	1.311	0.217	0.042	1.666	0.971	0.084	1.560	1.075	-0.045	1.719	0.786	-0.074	1.364	0.080	0.097	1.260	0.242	0.084	1.669	0.479	0.042	1.608	1.548	0.105	1.567	1.001	0.032	1.494	0.991	0.142	1.601	1.399	-0.014	1.656	0.624	0.026	1.635	0.687	0.021	1.605	0.628	0.030	1.491	0.319	0.034	1.513	0.381	0.030	1.453	0.353	0.035	1.358	0.126	0.070	1.337	0.089	0.035	1.699	0.868	-0.051	1.643	0.843	-0.055	1.641	0.068	0.230	1.674	0.978	0.288	1.488	1.343	0.281	1.543	1.085	0.422	1.634	0.759	0.453	1.800	0.044	0.192	1.596	0.029	0.182	1.709	0.499	0.281	1.599	1.535	0.239	1.582	1.031	0.329	1.493	0.997	0.234	1.601	1.401	0.356	1.690	0.652	0.321	1.663	0.711	0.337	1.639	0.651	0.320	1.682	0.243	0.259	1.659	0.303	0.272	1.631	0.244	0.259	1.759	0.056	0.210	1.758	0.032	0.254	1.628	0.838	0.422	1.575	0.837	0.459	1.503	1.032	0.184	1.498	1.191	0.170	1.521	1.421	0.174
184	1.95500	1.656	1.376	0.172	1.737	1.602	0.191	1.327	0.215	0.043	1.673	0.972	0.084	1.567	1.076	-0.044	1.723	0.785	-0.072	1.385	0.080	0.097	1.276	0.238	0.086	1.683	0.482	0.043	1.616	1.549	0.105	1.574	1.002	0.032	1.501	0.993	0.143	1.608	1.401	-0.014	1.667	0.626	0.027	1.645	0.688	0.022	1.616	0.629	0.031	1.507	0.320	0.035	1.528	0.382	0.031	1.468	0.353	0.037	1.377	0.125	0.070	1.358	0.088	0.035	1.703	0.868	-0.049	1.648	0.843	-0.053	1.641	0.068	0.230	1.681	0.979	0.288	1.496	1.344	0.281	1.551	1.086	0.422	1.643	0.761	0.454	1.800	0.044	0.192	1.596	0.029	0.182	1.711	0.499	0.281	1.607	1.536	0.239	1.589	1.032	0.329	1.500	0.998	0.235	1.608	1.402	0.356	1.694	0.653	0.321	1.668	0.712	0.337	1.643	0.652	0.321	1.683	0.243	0.260	1.660	0.303	0.272	1.632	0.244	0.259	1.759	0.056	0.210	1.758	0.032	0.254	1.637	0.840	0.423	1.583	0.838	0.460	1.510	1.034	0.184	1.505	1.192	0.171	1.528	1.422	0.174
185	1.96000	1.663	1.377	0.172	1.744	1.603	0.191	1.344	0.213	0.044	1.680	0.973	0.085	1.573	1.077	-0.043	1.727	0.785	-0.070	1.407	0.079	0.097	1.292	0.234	0.087	1.696	0.484	0.043	1.623	1.550	0.106	1.581	1.004	0.033	1.508	0.994	0.143	1.615	1.402	-0.014	1.678	0.629	0.027	1.654	0.690	0.022	1.627	0.631	0.032	1.522	0.320	0.036	1.542	0.383	0.032	1.483	0.353	0.038	1.397	0.125	0.071	1.379	0.087	0.035	1.708	0.867	-0.047	1.652	0.844	-0.052	1.641	0.068	0.230	1.688	0.980	0.289	1.503	1.346	0.282	1.558	1.087	0.423	1.652	0.763	0.454	1.800	0.044	0.192	1.596	0.029	0.182	1.713	0.499	0.282	1.614	1.537	0.239	1.596	1.033	0.330	1.507	1.000	0.235	1.615	1.403	0.357	1.698	0.653	0.322	1.673	0.712	0.338	1.647	0.653	0.321	1.684	0.243	0.260	1.661	0.303	0.272	1.633	0.244	0.259	1.759	0.056	0.210	1.758	0.032	0.254	1.645	0.841	0.423	1.592	0.840	0.460	1.517	1.035	0.185	1.512	1.193	0.171	1.535	1.424	0.175
186	1.96500	1.670	1.379	0.173	1.752	1.604	0.191	1.362	0.210	0.045	1.687	0.975	0.086	1.580	1.079	-0.042	1.731	0.784	-0.068	1.428	0.078	0.097	1.309	0.230	0.088	1.709	0.487	0.044	1.631	1.551	0.106	1.588	1.005	0.033	1.515	0.996	0.144	1.622	1.403	-0.013	1.688	0.631	0.027	1.664	0.692	0.023	1.637	0.632	0.032	1.538	0.321	0.036	1.557	0.384	0.033	1.498	0.353	0.039	1.417	0.123	0.072	1.400	0.086	0.035	1.713	0.867	-0.046	1.656	0.844	-0.051	1.641	0.068	0.230	1.695	0.981	0.289	1.510	1.347	0.282	1.566	1.089	0.423	1.661	0.764	0.454	1.800	0.044	0.192	1.596	0.030	0.182	1.715	0.499	0.282	1.621	1.538	0.240	1.603	1.035	0.330	1.514	1.002	0.236	1.623	1.405	0.357	1.702	0.653	0.322	1.678	0.713	0.338	1.651	0.654	0.322	1.684	0.243	0.260	1.662	0.303	0.273	1.633	0.245	0.259	1.759	0.056	0.210	1.758	0.032	0.254	1.654	0.843	0.423	1.601	0.841	0.460	1.524	1.036	0.185	1.519	1.194	0.172	1.542	1.425	0.175
187	1.97000	1.677	1.380	0.173	1.760	1.605	0.192	1.379	0.207	0.046	1.694	0.976	0.086	1.586	1.080	-0.042	1.735	0.784	-0.066	1.450	0.077	0.098	1.326	0.226	0.090	1.722	0.490	0.044	1.638	1.553	0.106	1.595	1.007	0.034	1.522	0.998	0.144	1.629	1.405	-0.013	1.699	0.633	0.028	1.674	0.694	0.023	1.648	0.634	0.033	1.553	0.321	0.037	1.571	0.384	0.034	1.513	0.352	0.040	1.437	0.122	0.072	1.421	0.084	0.036	1.717	0.867	-0.044	1.661	0.845	-0.050	1.641	0.068	0.230	1.702	0.982	0.290	1.517	1.348	0.283	1.574	1.090	0.424	1.670	0.766	0.454	1.800	0.044	0.192	1.596	0.030	0.182	1.717	0.499	0.282	1.629	1.540	0.240	1.610	1.036	0.331	1.521	1.003	0.236	1.630	1.406	0.357	1.707	0.653	0.322	1.683	0.713	0.338	1.655	0.655	0.322	1.685	0.243	0.260	1.663	0.303	0.273	1.634	0.245	0.259	1.759	0.056	0.211	1.758	0.032	0.254	1.663	0.845	0.423	1.610	0.843	0.461	1.530	1.038	0.186	1.526	1.196	0.172	1.549	1.426	0.175
188	1.97500	1.684	1.381	0.173	1.767	1.606	0.192	1.397	0.204	0.048	1.700	0.978	0.087	1.593	1.081	-0.041	1.739	0.783	-0.064	1.471	0.075	0.098	1.343	0.221	0.091	1.734	0.493	0.045	1.646	1.554	0.107	1.602	1.008	0.034	1.529	0.999	0.145	1.636	1.406	-0.013	1.709	0.636	0.028	1.683	0.696	0.024	1.658	0.636	0.034	1.569	0.321	0.038	1.585	0.385	0.034	1.528	0.352	0.041	1.457	0.121	0.073	1.443	0.082	0.037	1.722	0.867	-0.042	1.665	0.845	-0.049	1.641	0.068	0.230	1.708	0.983	0.291	1.525	1.350	0.283	1.582	1.091	0.424	1.679	0.768	0.455	1.800	0.044	0.192	1.596	0.030	0.182	1.719	0.499	0.283	1.636	1.541	0.240	1.617	1.037	0.331	1.528	1.005	0.237	1.637	1.407	0.357	1.711	0.653	0.323	1.688	0.714	0.339	1.659	0.655	0.323	1.685	0.243	0.261	1.664	0.303	0.273	1.634	0.245	0.259	1.759	0.056	0.211	1.758	0.032	0.254	1.671	0.846	0.423	1.618	0.844	0.461	1.537	1.039	0.187	1.533	1.197	0.173	1.557	1.427	0.176
189	1.98000	1.691	1.382	0.173	1.775	1.606	0.192	1.415	0.200	0.049	1.707	0.979	0.088	1.599	1.082	-0.040	1.742	0.783	-0.062	1.493	0.074	0.099	1.360	0.215	0.092	1.747	0.495	0.045	1.653	1.555	0.107	1.609	1.010	0.035	1.535	1.001	0.145	1.643	1.407	-0.013	1.720	0.638	0.028	1.693	0.698	0.024	1.669	0.637	0.034	1.584	0.321	0.039	1.600	0.385	0.035	1.543	0.351	0.042	1.477	0.119	0.074	1.464	0.080	0.038	1.726	0.867	-0.041	1.669	0.846	-0.047	1.641	0.069	0.230	1.715	0.984	0.291	1.532	1.351	0.284	1.589	1.093	0.425	1.688	0.770	0.455	1.800	0.044	0.193	1.596	0.030	0.182	1.721	0.499	0.283	1.644	1.542	0.240	1.624	1.038	0.332	1.535	1.006	0.237	1.645	1.409	0.357	1.715	0.654	0.323	1.693	0.714	0.339	1.664	0.656	0.323	1.685	0.243	0.261	1.664	0.304	0.273	1.635	0.246	0.260	1.759	0.056	0.211	1.758	0.032	0.255	1.680	0.848	0.423	1.627	0.845	0.461	1.544	1.040	0.187	1.540	1.198	0.174	1.564	1.428	0.176
190	1.98500	1.698	1.383	0.174	1.782	1.607	0.192	1.433	0.196	0.050	1.714	0.980	0.089	1.605	1.083	-0.040	1.746	0.782	-0.060	1.516	0.073	0.100	1.378	0.210	0.093	1.759	0.498	0.046	1.661	1.556	0.107	1.616	1.011	0.035	1.542	1.002	0.145	1.650	1.408	-0.012	1.730	0.640	0.028	1.702	0.700	0.025	1.679	0.639	0.035	1.600	0.321	0.039	1.614	0.385	0.036	1.558	0.350	0.043	1.498	0.117	0.075	1.486	0.078	0.039	1.730	0.867	-0.039	1.673	0.846	-0.046	1.641	0.069	0.230	1.722	0.985	0.292	1.539	1.352	0.284	1.597	1.094	0.425	1.698	0.772	0.455	1.800	0.044	0.193	1.596	0.030	0.182	1.723	0.498	0.284	1.651	1.543	0.241	1.631	1.039	0.332	1.542	1.007	0.237	1.652	1.410	0.358	1.719	0.654	0.323	1.697	0.714	0.339	1.668	0.657	0.324	1.686	0.243	0.261	1.665	0.304	0.273	1.635	0.246	0.260	1.759	0.056	0.211	1.758	0.031	0.255	1.689	0.850	0.423	1.636	0.847	0.461	1.551	1.042	0.188	1.547	1.199	0.174	1.571	1.429	0.176
191	1.99000	1.705	1.384	0.174	1.790	1.607	0.192	1.452	0.192	0.051	1.721	0.982	0.090	1.611	1.085	-0.039	1.750	0.782	-0.058	1.538	0.072	0.101	1.396	0.204	0.094	1.771	0.501	0.046	1.668	1.557	0.108	1.623	1.013	0.036	1.549	1.003	0.146	1.657	1.409	-0.012	1.740	0.643	0.029	1.711	0.702	0.025	1.689	0.640	0.036	1.615	0.320	0.040	1.628	0.385	0.037	1.573	0.349	0.044	1.519	0.115	0.076	1.509	0.076	0.040	1.735	0.867	-0.038	1.677	0.847	-0.045	1.641	0.069	0.230	1.729	0.985	0.292	1.546	1.353	0.285	1.605	1.095	0.425	1.707	0.773	0.455	1.800	0.044	0.193	1.596	0.031	0.182	1.725	0.498	0.284	1.658	1.544	0.241	1.638	1.040	0.333	1.549	1.008	0.238	1.659	1.411	0.358	1.723	0.654	0.323	1.702	0.715	0.339	1.671	0.657	0.324	1.686	0.243	0.261	1.666	0.304	0.274	1.636	0.246	0.260	1.759	0.056	0.211	1.758	0.031	0.255	1.697	0.851	0.423	1.645	0.848	0.461	1.558	1.043	0.188	1.554	1.200	0.175	1.578	1.430	0.177
192	1.99500	1.712	1.385	0.174	1.797	1.608	0.193	1.471	0.188	0.052	1.727	0.983	0.090	1.618	1.086	-0.038	1.753	0.781	-0.056	1.560	0.070	0.102	1.414	0.198	0.095	1.783	0.504	0.047	1.675	1.558	0.108	1.630	1.014	0.037	1.556	1.004	0.146	1.664	1.410	-0.012	1.749	0.645	0.029	1.720	0.704	0.026	1.699	0.642	0.037	1.631	0.320	0.041	1.643	0.385	0.038	1.588	0.347	0.045	1.540	0.113	0.077	1.531	0.074	0.041	1.739	0.866	-0.036	1.681	0.847	-0.044	1.641	0.069	0.230	1.736	0.986	0.293	1.554	1.354	0.285	1.612	1.096	0.426	1.716	0.775	0.455	1.800	0.044	0.193	1.596	0.031	0.182	1.727	0.498	0.284	1.666	1.545	0.241	1.644	1.041	0.333	1.556	1.009	0.238	1.667	1.412	0.358	1.726	0.654	0.324	1.707	0.715	0.340	1.675	0.658	0.324	1.687	0.243	0.262	1.666	0.304	0.274	1.636	0.246	0.260	1.759	0.056	0.211	1.758	0.031	0.255	1.706	0.853	0.423	1.653	0.849	0.461	1.565	1.044	0.189	1.561	1.201	0.175	1.585	1.431	0.177
